# xmcd
#
# Track frame offsets:
#   150
#   15513
#   29648
#   47744
#   62800
#   73863
#   89841
#   103361
#   121489
#   135931
#   154059
#   168993
#   184664
#   191383
#   210126
#
# Disc length: 2899 seconds
#
# Revision: 0
# Processed by: cddbd v1.5.1PL0 Copyright (c) Steve Scherf et al.
# Submitted via: Media_Universe 3.0
#
DISCID=d00b510f
DTITLE=Mark Chesnutt - Savin The Honky Tonk
DYEAR=1900
DGENRE=Country
TTITLE0=Somebody Save The Honky Tonks
TTITLE1=Im A Saint
TTITLE2=The Lord Loves A Drinkin Man
TTITLE3=Would These Arms Be In Your Way
TTITLE4=You Cant Do Me This Way
TTITLE5=A Hard Secret To Keep
TTITLE6=What Are We Doing In Love
TTITLE7=Dont Ruin It For The Rest Of Us
TTITLE8=Mama's House
TTITLE9=Since You Aint Home
TTITLE10=Think Like A Woman
TTITLE11=Then We Can All Go Home
TTITLE12=Beer Bait And Ammo
TTITLE13=My Best Drinkin
TTITLE14=Honky Tonk Heroes
EXTD=
EXTT0=
EXTT1=
EXTT2=
EXTT3=
EXTT4=
EXTT5=
EXTT6=
EXTT7=
EXTT8=
EXTT9=
EXTT10=
EXTT11=
EXTT12=
EXTT13=
EXTT14=
PLAYORDER=
